<svg width="44" height="40" viewBox="0 0 44 40" fill="none" xmlns="http://www.w3.org/2000/svg">
<path d="M19.2052 40.008C15.7892 40.008 12.6812 39.336 9.88117 37.992C7.13717 36.592 4.95317 34.464 3.32917 31.608C1.70517 28.752 0.893172 25.112 0.893172 20.688C0.893172 16.544 1.73317 12.96 3.41317 9.936C5.09317 6.912 7.30517 4.588 10.0492 2.964C12.7932 1.284 15.7052 0.443998 18.7852 0.443998C22.4252 0.443998 25.1692 1.06 27.0172 2.292C28.9212 3.468 30.4892 4.784 31.7212 6.24L31.2172 7.668L32.3092 2.292H43.2292V39H31.4692V31.02L32.3932 33.54C32.2812 33.54 31.9452 33.876 31.3852 34.548C30.8252 35.164 29.9852 35.92 28.8652 36.816C27.8012 37.656 26.4572 38.384 24.8332 39C23.2652 39.672 21.3892 40.008 19.2052 40.008ZM22.5652 30.432C23.9652 30.432 25.2252 30.236 26.3452 29.844C27.4652 29.396 28.4452 28.78 29.2852 27.996C30.1252 27.156 30.8532 26.12 31.4692 24.888V15.9C31.0212 14.668 30.3492 13.632 29.4532 12.792C28.5572 11.896 27.4932 11.224 26.2612 10.776C25.0292 10.272 23.6572 10.02 22.1452 10.02C20.4652 10.02 18.8972 10.468 17.4412 11.364C16.0412 12.204 14.9212 13.38 14.0812 14.892C13.2412 16.404 12.8212 18.14 12.8212 20.1C12.8212 22.06 13.2692 23.824 14.1652 25.392C15.0612 26.96 16.2372 28.192 17.6932 29.088C19.2052 29.984 20.8292 30.432 22.5652 30.432Z" fill="#32534B"/>
</svg>
