<svg width="49" height="48" viewBox="0 0 49 48" fill="none" xmlns="http://www.w3.org/2000/svg">
<path d="M48.8926 11.86C48.8926 8.5985 47.2437 5.6928 44.6629 3.4987C42.082 1.3639 38.5692 0 34.5546 0C30.6116 0 27.0988 1.3639 24.4463 3.4987L0 23.72L24.4463 43.9413C27.0271 46.0761 30.5399 47.44 34.5546 47.44C38.4975 47.44 42.0103 46.0761 44.6629 43.9413C47.2437 41.8065 48.8926 38.9008 48.8926 35.58C48.8926 32.3185 47.2437 29.4128 44.6629 27.2187C42.082 25.0839 38.5692 23.72 34.5546 23.72C38.4975 23.72 42.0103 22.3561 44.6629 20.2213C47.2437 18.0865 48.8926 15.1808 48.8926 11.86Z" fill="#848D8B"/>
</svg>
